<?xml version="1.0" encoding="UTF-8"?>
<svg version="1.1" xmlns="http://www.w3.org/2000/svg" width="32" height="32">
<path d="M0 0 C10.56 0 21.12 0 32 0 C32 10.56 32 21.12 32 32 C21.44 32 10.88 32 0 32 C0 21.44 0 10.88 0 0 Z " fill="#D4E8E7" transform="translate(0,0)"/>
<path d="M0 0 C5.94 0 11.88 0 18 0 C18 1.32 18 2.64 18 4 C16.02 4 14.04 4 12 4 C12.01160156 5.21558594 12.02320313 6.43117188 12.03515625 7.68359375 C12.04453278 9.26822764 12.05363313 10.85286318 12.0625 12.4375 C12.07087891 13.23994141 12.07925781 14.04238281 12.08789062 14.86914062 C12.0965143 16.91295221 12.0522815 18.95683902 12 21 C11.67 21.33 11.34 21.66 11 22 C9.35 22 7.7 22 6 22 C6 16.06 6 10.12 6 4 C4.02 4 2.04 4 0 4 C0 2.68 0 1.36 0 0 Z " fill="#333F45" transform="translate(7,5)"/>
</svg>
